<svg xmlns="http://www.w3.org/2000/svg" width="285.058" height="96.719" viewBox="0 0 285.058 96.719">
  <g id="Group_66" data-name="Group 66" transform="translate(-554 839)">
    <path id="Path_30" data-name="Path 30" d="M343.851,268.128A17.029,17.029,0,1,0,360.88,251.1,17.029,17.029,0,0,0,343.851,268.128Z" transform="translate(305.741 -1078.46)" fill="#e9af00"/>
    <g id="Group_49" data-name="Group 49" transform="translate(661.991 -839)">
      <path id="Path_31" data-name="Path 31" d="M372.528,234.327a1.743,1.743,0,0,0-1.874-1.612c-.963,0-1.716.385-1.821,1.1-.3,1.979,3.275,1.1,3.328,5.184h-2.715c0-2.714-4.1-2.154-3.415-5.762.4-1.944,2.207-2.89,4.624-2.89,2.68,0,4.589,1.419,4.606,3.976Zm-.14,7.128a1.611,1.611,0,0,1-3.222,0A1.611,1.611,0,0,1,372.387,241.454Z" transform="translate(-365.953 -230.351)" fill="#e9af00"/>
    </g>
    <g id="Group_50" data-name="Group 50" transform="translate(644.473 -831.333)">
      <path id="Path_32" data-name="Path 32" d="M340.572,247.105a1.742,1.742,0,0,0-2.458.259c-.661.7-.9,1.514-.447,2.082,1.236,1.574,3.049-1.626,6.055,1.134l-1.862,1.975c-1.976-1.861-4.378,1.506-6.536-1.466-1.138-1.627-.589-3.587,1.068-5.347,1.838-1.95,4.18-2.366,6.053-.625Zm5.091,4.991a1.611,1.611,0,0,1-2.21,2.345A1.611,1.611,0,0,1,345.664,252.1Z" transform="translate(-334.725 -244.019)" fill="#e9af00"/>
    </g>
    <g id="Group_51" data-name="Group 51" transform="translate(678.412 -830.531)">
      <path id="Path_33" data-name="Path 33" d="M398.029,256.386a1.611,1.611,0,0,1-2.345-2.21A1.611,1.611,0,0,1,398.029,256.386Zm4.99-5.091a1.742,1.742,0,0,0-.259-2.458c-.7-.66-1.513-.9-2.082-.446-1.574,1.236,1.627,3.049-1.133,6.055l-1.976-1.862c1.862-1.975-1.505-4.378,1.466-6.535,1.627-1.138,3.587-.59,5.347,1.068,1.949,1.838,2.366,4.18.625,6.052Z" transform="translate(-395.227 -245.448)" fill="#e9af00"/>
    </g>
    <g id="Group_52" data-name="Group 52" transform="translate(661.945 -794.637)">
      <path id="Path_34" data-name="Path 34" d="M368.6,318.151a1.743,1.743,0,0,0,1.874,1.611c.963,0,1.716-.385,1.821-1.1.3-1.979-3.275-1.1-3.328-5.184h2.715c0,2.715,4.1,2.154,3.415,5.762-.4,1.944-2.207,2.89-4.624,2.89-2.68,0-4.589-1.419-4.606-3.975Zm.14-7.128a1.611,1.611,0,0,1,3.222,0A1.611,1.611,0,0,1,368.744,311.023Z" transform="translate(-365.872 -309.434)" fill="#e9af00"/>
    </g>
    <g id="Group_53" data-name="Group 53" transform="translate(677.543 -800.117)">
      <path id="Path_35" data-name="Path 35" d="M394.2,302.468a1.611,1.611,0,0,1,2.21-2.345A1.611,1.611,0,0,1,394.2,302.468Zm5.091,4.991a1.743,1.743,0,0,0,2.458-.259c.66-.7.9-1.513.446-2.082-1.236-1.574-3.049,1.626-6.055-1.134L398,302.009c1.975,1.861,4.378-1.506,6.535,1.466,1.138,1.627.59,3.588-1.068,5.347-1.838,1.95-4.179,2.366-6.052.626Z" transform="translate(-393.677 -299.665)" fill="#e9af00"/>
    </g>
    <g id="Group_54" data-name="Group 54" transform="translate(644.185 -800.751)">
      <path id="Path_36" data-name="Path 36" d="M337.3,304.149a1.742,1.742,0,0,0,.259,2.459c.7.66,1.513.9,2.082.446,1.574-1.236-1.627-3.049,1.133-6.055l1.976,1.861c-1.862,1.976,1.505,4.378-1.466,6.535-1.627,1.139-3.587.59-5.347-1.068-1.949-1.837-2.366-4.179-.625-6.052Zm4.99-5.09a1.611,1.611,0,0,1,2.345,2.21A1.611,1.611,0,0,1,342.289,299.058Z" transform="translate(-334.212 -298.535)" fill="#e9af00"/>
    </g>
    <g id="Group_55" data-name="Group 55" transform="translate(707.866 -818.933)">
      <path id="Path_37" data-name="Path 37" d="M465.171,283.148a10.357,10.357,0,0,1-7.231,2.9c-6.693,0-10.181-4.557-10.209-9.778-.057-5.165,3.4-10,10.209-10a10.359,10.359,0,0,1,7.231,2.9l-1.049.884a8.807,8.807,0,0,0-6.182-2.459c-5.785,0-8.763,3.978-8.735,8.618.057,4.53,3.006,8.452,8.735,8.452a9,9,0,0,0,6.21-2.458Z" transform="translate(-447.731 -266.188)" fill="#fff"/>
      <path id="Path_38" data-name="Path 38" d="M502.989,276.122c-.028,5.082-3.346,9.972-10.01,9.972s-10.01-4.917-10.01-10.027c0-5.193,3.318-9.944,10.01-9.944S503.018,270.9,502.989,276.122Zm-18.518-.028c.029,4.365,2.865,8.619,8.508,8.619,5.672,0,8.536-4.254,8.536-8.619,0-4.474-2.836-8.59-8.536-8.59S484.444,271.537,484.471,276.094Z" transform="translate(-463.201 -266.123)" fill="#fff"/>
      <path id="Path_39" data-name="Path 39" d="M539.522,266.665l-8.167,19.39H529.71l-8.167-19.39h1.645l7.345,17.678,7.345-17.678Z" transform="translate(-480.137 -266.361)" fill="#fff"/>
      <path id="Path_40" data-name="Path 40" d="M560.115,286V266.665h1.5V286Z" transform="translate(-497.071 -266.361)" fill="#fff"/>
      <path id="Path_41" data-name="Path 41" d="M589.593,276.112c.114,4.917-3.119,9.889-10.067,9.889H572.8V266.665h6.72C586.247,266.665,589.479,271.361,589.593,276.112Zm-15.257-8.038v16.49h5.19c5.9,0,8.621-4.309,8.536-8.452-.085-4.033-2.808-8.038-8.536-8.038Z" transform="translate(-502.642 -266.361)" fill="#fff"/>
      <path id="Path_42" data-name="Path 42" d="M609.2,285.819h9.925V287.2H609.2Z" transform="translate(-518.623 -274.77)" fill="#fff"/>
      <path id="Path_43" data-name="Path 43" d="M632.51,284.7h3.857V268.35l-3.658.884v-1.3l5.189-1.271V284.7h3.885V286H632.51Z" transform="translate(-528.855 -266.361)" fill="#fff"/>
      <path id="Path_44" data-name="Path 44" d="M667.156,275.37c-1.588,2.21-3.913,2.735-6.38,2.735-3.743,0-7.742-1.685-7.742-5.966,0-4.392,4.027-5.966,7.771-5.966,3.771,0,7.827,1.658,7.827,6.022v8.453c0,3.646-3.772,5.358-7.543,5.358-3.971,0-7.317-1.63-7.572-4.889h1.531c.171,2.32,2.78,3.563,6.041,3.563,3.006,0,6.068-1.354,6.068-4.032Zm-12.619-3.232c0,3.425,3.4,4.613,6.239,4.613s6.3-1.409,6.324-4.585c.029-3.48-3.46-4.585-6.3-4.585S654.537,268.6,654.537,272.138Z" transform="translate(-537.865 -266.145)" fill="#fff"/>
    </g>
    <g id="Group_56" data-name="Group 56" transform="translate(554 -820.096)">
      <path id="Path_45" data-name="Path 45" d="M173.445,284.709V264.858h4.4v19.851Z" transform="translate(-173.445 -264.405)" fill="#fff"/>
      <path id="Path_46" data-name="Path 46" d="M205.379,281.944a10.5,10.5,0,0,1-7.628,2.921c-7.572,0-10.578-4.878-10.606-10.294-.028-5.133,3.318-10.521,10.606-10.521a10.224,10.224,0,0,1,7.288,3.062l-2.779,2.751a6.481,6.481,0,0,0-4.509-1.645c-4.509,0-6.268,3.488-6.239,6.38s1.588,6.182,6.239,6.182a7.521,7.521,0,0,0,4.878-1.9Z" transform="translate(-179.46 -264.05)" fill="#fff"/>
      <path id="Path_47" data-name="Path 47" d="M236.6,281.306h-10.18l-1.446,3.4h-4.764l8.9-19.851h4.822l8.9,19.851h-4.792Zm-5.076-11.967-3.431,8.053h6.834Z" transform="translate(-193.975 -264.405)" fill="#fff"/>
      <path id="Path_48" data-name="Path 48" d="M281.562,270.95l-6.125,7.713h-.794l-5.927-7.77V284.76h-4.424V264.909h5.076l5.785,7.629,5.814-7.629h5.019V284.76h-4.424Z" transform="translate(-213.33 -264.427)" fill="#fff"/>
    </g>
    <circle id="Ellipse_1" data-name="Ellipse 1" cx="4.793" cy="4.793" r="4.793" transform="translate(732.593 -804.651) rotate(-85.495)" fill="#fff"/>
    <g id="Group_57" data-name="Group 57" transform="translate(636.42 -813.631)">
      <rect id="Rectangle_43" data-name="Rectangle 43" width="2.272" height="3.833" transform="translate(100.343 14.114)" fill="#fff"/>
      <path id="Path_49" data-name="Path 49" d="M420.712,303.713h.024c-.132,22.485-17.2,40.67-38.245,40.67-12.354,0-23.152-9.3-30.134-19.215a2.2,2.2,0,0,0,.169-.914l-.139.036c.074-.108.119-.108.139-.036.275-.074.555-.151.839-.215a13,13,0,0,0,8.927-6.43c1.767-2.364,16.222-21.352,17.72-25.568,1.638-4.6,1.277-9.165-2.225-13.031a9.836,9.836,0,0,0-5.793-3.382c-1.382-.092-3.158-.036-4.353-.036v3.352c.93,0,1.693-.023,2.454,0a7.538,7.538,0,0,1,7.122,5.747,10.537,10.537,0,0,1-.488,6.759c-1.592,3.581-15.545,22.347-18.182,25.847h-.066a10.372,10.372,0,0,1-15.823,0h-.018c-2.619-3.5-16.458-22.266-18.05-25.847a10.541,10.541,0,0,1-.487-6.759,7.538,7.538,0,0,1,7.122-5.747c.761-.028,1.524,0,2.454,0v-3.352c-1.194,0-2.97-.056-4.353.036a9.832,9.832,0,0,0-5.793,3.382c-3.5,3.866-3.863,8.428-2.226,13.031,1.671,4.7,17.948,26.355,17.7,25.883h.015a12.719,12.719,0,0,0,8.751,6.117c.366.08,1.733,1.977,1.954,2.039l0,0c7.362,11.079,19.3,20.843,32.764,20.843,22.325,0,40.429-19.335,40.49-43.211h0v-4.02h-2.272Z" transform="translate(-320.369 -275.575)" fill="#fff" fill-rule="evenodd"/>
    </g>
    <g id="Group_58" data-name="Group 58" transform="translate(708.76 -794.958)">
      <path id="Path_50" data-name="Path 50" d="M449.325,314v-3.319h.735V314Z" transform="translate(-449.325 -309.659)" fill="#fff"/>
      <path id="Path_51" data-name="Path 51" d="M454.263,312.836l-.048-1.043v-1.114h.744V314h-.635l-1.65-2.124.029,1.091V314h-.749v-3.319h.636Z" transform="translate(-450.479 -309.659)" fill="#fff"/>
      <path id="Path_52" data-name="Path 52" d="M458.629,314v-3.315h2.418v.678h-1.678v.788h1.575v.659h-1.575V314Z" transform="translate(-453.41 -309.662)" fill="#fff"/>
      <path id="Path_53" data-name="Path 53" d="M465.372,314.015a1.741,1.741,0,1,1,1.793-1.74A1.657,1.657,0,0,1,465.372,314.015Zm0-2.817a1.041,1.041,0,0,0-1.067,1.077,1.067,1.067,0,1,0,1.067-1.077Z" transform="translate(-455.583 -309.595)" fill="#fff"/>
      <path id="Path_54" data-name="Path 54" d="M473.893,314h-.82l-.848-1.091h-.536V314h-.74v-3.319h1.575a1.124,1.124,0,0,1,1.228,1.119,1,1,0,0,1-.769,1.043l.91,1.1Zm-2.2-2.684v.967h.843a.461.461,0,0,0,.489-.464.488.488,0,0,0-.5-.5Z" transform="translate(-458.818 -309.659)" fill="#fff"/>
      <path id="Path_55" data-name="Path 55" d="M479.962,311.7l-1.025,1.29h-.132l-.991-1.3v2.318h-.741v-3.32h.849l.967,1.276.973-1.276h.839v3.32h-.74Z" transform="translate(-461.508 -309.662)" fill="#fff"/>
      <path id="Path_56" data-name="Path 56" d="M486.9,313.429h-1.7l-.242.569h-.8l1.489-3.319h.807L487.947,314h-.8Zm-.849-2-.573,1.347h1.143Z" transform="translate(-464.62 -309.659)" fill="#fff"/>
      <path id="Path_57" data-name="Path 57" d="M492.257,314.659c.1.127.493.241.546.029.043-.181-.251-.289-.417-.162l-.152-.114.152-.417A1.58,1.58,0,0,1,491,312.3a1.684,1.684,0,0,1,1.774-1.76,1.706,1.706,0,0,1,1.218.512l-.464.46a1.086,1.086,0,0,0-.754-.275,1,1,0,0,0-1.043,1.066.97.97,0,0,0,1.043,1.034,1.258,1.258,0,0,0,.816-.318l.459.512a1.738,1.738,0,0,1-1.185.489l-.057.166a.471.471,0,0,1,.5.569c-.085.639-1.053.587-1.342.141Z" transform="translate(-467.622 -309.599)" fill="#fff"/>
      <path id="Path_58" data-name="Path 58" d="M499.275,312.692h-1.7l-.242.569h-.8l1.489-3.319h.807l1.489,3.319h-.8Zm-1.75-3.243c.142-.3.346-.517.687-.427.232.057.47.3.583,0l.422.209c-.175.408-.389.522-.659.427s-.489-.3-.631.033Zm.9,1.243-.573,1.347H499Z" transform="translate(-470.051 -308.923)" fill="#fff"/>
      <path id="Path_59" data-name="Path 59" d="M505.146,314.015a1.741,1.741,0,1,1,1.792-1.74A1.657,1.657,0,0,1,505.146,314.015Zm0-2.817a1.042,1.042,0,0,0-1.068,1.077,1.067,1.067,0,1,0,1.068-1.077Z" transform="translate(-473.045 -309.595)" fill="#fff"/>
      <path id="Path_60" data-name="Path 60" d="M515.436,313.535a1.753,1.753,0,0,1-1.276.489,1.612,1.612,0,0,1-1.773-1.721,1.684,1.684,0,0,1,1.773-1.76,1.709,1.709,0,0,1,1.219.512l-.464.46a1.087,1.087,0,0,0-.754-.275,1,1,0,0,0-1.043,1.066.971.971,0,0,0,1.043,1.034,1.258,1.258,0,0,0,.816-.318Z" transform="translate(-477.011 -309.599)" fill="#fff"/>
      <path id="Path_61" data-name="Path 61" d="M518.6,314v-3.319h.735V314Z" transform="translate(-479.741 -309.659)" fill="#fff"/>
      <path id="Path_62" data-name="Path 62" d="M523.761,314h-2.528v-3.319h2.462v.678h-1.736V312h1.636v.65h-1.636v.669h1.8Z" transform="translate(-480.895 -309.659)" fill="#fff"/>
      <path id="Path_63" data-name="Path 63" d="M529.086,312.836l-.048-1.043v-1.114h.744V314h-.635l-1.65-2.124.029,1.091V314h-.75v-3.319h.636Z" transform="translate(-483.328 -309.659)" fill="#fff"/>
      <path id="Path_64" data-name="Path 64" d="M533.946,311.338h-1.01v-.659h2.755v.659h-1.01V314h-.735Z" transform="translate(-486.033 -309.659)" fill="#fff"/>
      <path id="Path_65" data-name="Path 65" d="M538.649,313.237v-3.319h.735v3.319Zm1.171-4.292h-.8l-.351.664v.033h.6l.55-.669Z" transform="translate(-488.541 -308.898)" fill="#fff"/>
      <path id="Path_66" data-name="Path 66" d="M541.276,314v-3.315h2.419v.678h-1.678v.788h1.574v.659h-1.574V314Z" transform="translate(-489.694 -309.662)" fill="#fff"/>
      <path id="Path_67" data-name="Path 67" d="M546.566,314v-3.319h.735V314Z" transform="translate(-492.017 -309.659)" fill="#fff"/>
      <path id="Path_68" data-name="Path 68" d="M551.905,313.535a1.754,1.754,0,0,1-1.276.489,1.613,1.613,0,0,1-1.774-1.721,1.685,1.685,0,0,1,1.774-1.76,1.707,1.707,0,0,1,1.218.512l-.464.46a1.085,1.085,0,0,0-.754-.275,1,1,0,0,0-1.043,1.066.971.971,0,0,0,1.043,1.034,1.257,1.257,0,0,0,.816-.318Z" transform="translate(-493.022 -309.599)" fill="#fff"/>
      <path id="Path_69" data-name="Path 69" d="M557.123,313.429h-1.7l-.241.569h-.8l1.489-3.319h.807L558.166,314h-.8Zm-.849-2-.574,1.347h1.143Z" transform="translate(-495.448 -309.659)" fill="#fff"/>
      <path id="Path_70" data-name="Path 70" d="M564.224,313.059V314h-.741v-3.319h1.565a1.193,1.193,0,1,1,0,2.38Zm0-.678h.825a.485.485,0,0,0,.531-.5.491.491,0,0,0-.531-.5h-.825Z" transform="translate(-499.444 -309.659)" fill="#fff"/>
      <path id="Path_71" data-name="Path 71" d="M570.989,313.429h-1.7l-.242.569h-.8l1.489-3.319h.807L572.032,314h-.8Zm-.849-2-.573,1.347h1.143Z" transform="translate(-501.536 -309.659)" fill="#fff"/>
      <path id="Path_72" data-name="Path 72" d="M578.562,314h-.821l-.848-1.091h-.536V314h-.74v-3.319h1.575a1.125,1.125,0,0,1,1.228,1.119,1,1,0,0,1-.768,1.043l.91,1.1Zm-2.205-2.684v.967h.844a.46.46,0,0,0,.489-.464.488.488,0,0,0-.5-.5Z" transform="translate(-504.771 -309.659)" fill="#fff"/>
      <path id="Path_73" data-name="Path 73" d="M583.791,313.429h-1.7l-.241.569h-.8l1.489-3.319h.807L584.834,314h-.8Zm-.849-2-.574,1.347h1.143Z" transform="translate(-507.156 -309.659)" fill="#fff"/>
      <path id="Path_74" data-name="Path 74" d="M591.928,313.429h-1.7l-.242.569h-.8l1.489-3.319h.806L592.972,314h-.8Zm-.849-2-.573,1.347h1.143Z" transform="translate(-510.729 -309.659)" fill="#fff"/>
      <path id="Path_75" data-name="Path 75" d="M597.3,313.059V314h-.74v-3.319h1.565a1.193,1.193,0,1,1,0,2.38Zm0-.678h.825a.484.484,0,0,0,.531-.5.49.49,0,0,0-.531-.5H597.3Z" transform="translate(-513.964 -309.659)" fill="#fff"/>
      <path id="Path_76" data-name="Path 76" d="M603.917,314.015a1.741,1.741,0,1,1,1.793-1.74A1.657,1.657,0,0,1,603.917,314.015Zm0-2.817a1.042,1.042,0,0,0-1.067,1.077,1.067,1.067,0,1,0,1.067-1.077Z" transform="translate(-516.409 -309.595)" fill="#fff"/>
      <path id="Path_77" data-name="Path 77" d="M609.493,314v-3.319h.735V314Z" transform="translate(-519.644 -309.659)" fill="#fff"/>
      <path id="Path_78" data-name="Path 78" d="M613.575,314.015a1.741,1.741,0,1,1,1.793-1.74A1.657,1.657,0,0,1,613.575,314.015Zm0-2.817a1.042,1.042,0,0,0-1.067,1.077,1.067,1.067,0,1,0,1.067-1.077Z" transform="translate(-520.649 -309.595)" fill="#fff"/>
      <path id="Path_79" data-name="Path 79" d="M622.93,313.429h-1.7l-.242.569h-.8l1.489-3.319h.806L623.973,314h-.8Zm-.849-2-.573,1.347h1.143Z" transform="translate(-524.34 -309.659)" fill="#fff"/>
      <path id="Path_80" data-name="Path 80" d="M628.8,314.015a1.741,1.741,0,1,1,1.792-1.74A1.657,1.657,0,0,1,628.8,314.015Zm0-2.817a1.042,1.042,0,0,0-1.067,1.077A1.067,1.067,0,1,0,628.8,311.2Z" transform="translate(-527.334 -309.595)" fill="#fff"/>
      <path id="Path_81" data-name="Path 81" d="M636.141,311.387a1.109,1.109,0,0,0-.768-.28c-.328,0-.593.137-.593.365,0,.3.289.36.716.4.654.057,1.276.309,1.276,1.077,0,.74-.683,1.062-1.4,1.067a1.659,1.659,0,0,1-1.451-.683l.441-.46a1.32,1.32,0,0,0,1.015.47c.394,0,.664-.156.664-.394.005-.279-.218-.408-.668-.445-.7-.066-1.328-.242-1.319-1.024.005-.659.63-1.01,1.314-1.01a1.461,1.461,0,0,1,1.237.512Z" transform="translate(-530.369 -309.566)" fill="#fff"/>
      <path id="Path_82" data-name="Path 82" d="M644.794,311.7l-1.025,1.29h-.132l-.991-1.3v2.318h-.74v-3.32h.849l.967,1.276.972-1.276h.839v3.32h-.739Z" transform="translate(-533.874 -309.662)" fill="#fff"/>
      <path id="Path_83" data-name="Path 83" d="M652.217,313.2h-2.528v-3.319h2.462v.678h-1.736v.64h1.636v.65h-1.636v.669h1.8Zm-.493-4.339h-.8l-.351.664v.033h.6l.55-.669Z" transform="translate(-537.291 -308.861)" fill="#fff"/>
      <path id="Path_84" data-name="Path 84" d="M656.594,310.679a1.53,1.53,0,0,1,1.65,1.636,1.556,1.556,0,0,1-1.65,1.683h-1.361v-3.319Zm-.631,2.636h.631a.885.885,0,0,0,.92-1.01.861.861,0,0,0-.92-.958h-.631Z" transform="translate(-539.725 -309.659)" fill="#fff"/>
      <path id="Path_85" data-name="Path 85" d="M661.595,314v-3.319h.735V314Z" transform="translate(-542.518 -309.659)" fill="#fff"/>
      <path id="Path_86" data-name="Path 86" d="M666.934,313.535a1.753,1.753,0,0,1-1.276.489,1.613,1.613,0,0,1-1.773-1.721,1.684,1.684,0,0,1,1.773-1.76,1.709,1.709,0,0,1,1.219.512l-.465.46a1.088,1.088,0,0,0-.754-.275,1,1,0,0,0-1.043,1.066.971.971,0,0,0,1.043,1.034,1.257,1.257,0,0,0,.816-.318Z" transform="translate(-543.524 -309.599)" fill="#fff"/>
      <path id="Path_87" data-name="Path 87" d="M671.4,314.015a1.741,1.741,0,1,1,1.792-1.74A1.657,1.657,0,0,1,671.4,314.015Zm0-2.817a1.042,1.042,0,0,0-1.068,1.077A1.067,1.067,0,1,0,671.4,311.2Z" transform="translate(-546.035 -309.595)" fill="#fff"/>
      <path id="Path_88" data-name="Path 88" d="M678.737,311.387a1.11,1.11,0,0,0-.769-.28c-.328,0-.592.137-.592.365,0,.3.289.36.716.4.654.057,1.276.309,1.276,1.077,0,.74-.683,1.062-1.4,1.067a1.659,1.659,0,0,1-1.451-.683l.441-.46a1.32,1.32,0,0,0,1.014.47c.394,0,.664-.156.664-.394.005-.279-.218-.408-.669-.445-.7-.066-1.328-.242-1.318-1.024.005-.659.63-1.01,1.314-1.01a1.461,1.461,0,0,1,1.237.512Z" transform="translate(-549.07 -309.566)" fill="#fff"/>
    </g>
  </g>
</svg>
