<svg xmlns="http://www.w3.org/2000/svg" viewBox="0 0 510.27 174.43"><defs><style>.a{fill:#5a5a5d;}.b,.d{fill:#151344;}.c{fill:#e9af00;}.d{fill-rule:evenodd;}</style></defs><title>ICAM2e_v2b</title><path class="a" d="M478.82,296.36a18.5,18.5,0,0,1-12.89,5.17c-11.93,0-18.15-8.13-18.2-17.43s6.07-17.83,18.2-17.83a18.46,18.46,0,0,1,12.89,5.17L477,273a15.69,15.69,0,0,0-11-4.39c-10.31,0-15.62,7.1-15.57,15.37.1,8.07,5.36,15.06,15.57,15.06A16,16,0,0,0,477,294.68Z" transform="translate(-173.31 -207.68)"/><path class="a" d="M518.66,284c0,9.06-6,17.77-17.85,17.77S483,293,483,283.85c0-9.26,5.91-17.73,17.84-17.73S518.71,274.64,518.66,284Zm-33-.05c.05,7.78,5.1,15.36,15.16,15.36S516,291.68,516,283.9c0-8-5.06-15.32-15.22-15.32S485.6,275.77,485.65,283.9Z" transform="translate(-173.31 -207.68)"/><path class="a" d="M553.59,266.66,539,301.23H536.1l-14.56-34.57h2.93l13.1,31.52,13.09-31.52Z" transform="translate(-173.31 -207.68)"/><path class="a" d="M560.12,301.13V266.66h2.67v34.47Z" transform="translate(-173.31 -207.68)"/><path class="a" d="M602.73,283.5c.2,8.77-5.56,17.63-17.94,17.63h-12V266.66h12C596.77,266.66,602.53,275,602.73,283.5Zm-27.2-14.32v29.39h9.26c10.51,0,15.36-7.68,15.21-15.07-.15-7.18-5-14.32-15.21-14.32Z" transform="translate(-173.31 -207.68)"/><path class="a" d="M609.2,285.82h17.7v2.46H609.2Z" transform="translate(-173.31 -207.68)"/><path class="a" d="M632.51,298.82h6.87V269.67l-6.52,1.57v-2.31l9.26-2.27v32.16H649v2.31H632.51Z" transform="translate(-173.31 -207.68)"/><path class="a" d="M678.21,282.57c-2.83,3.94-7,4.87-11.38,4.87-6.67,0-13.8-3-13.8-10.63,0-7.83,7.18-10.64,13.86-10.64s14,3,14,10.74V292c0,6.5-6.73,9.56-13.45,9.56-7.08,0-13-2.91-13.5-8.72h2.73c.31,4.14,5,6.35,10.77,6.35,5.36,0,10.82-2.41,10.82-7.19Zm-22.5-5.76c0,6.1,6.07,8.22,11.12,8.22s11.23-2.51,11.28-8.17c0-6.21-6.17-8.18-11.22-8.18S655.71,270.51,655.71,276.81Z" transform="translate(-173.31 -207.68)"/><path class="b" d="M173.31,300.25V264.86h7.84v35.39Z" transform="translate(-173.31 -207.68)"/><path class="b" d="M219.52,296a18.72,18.72,0,0,1-13.6,5.21c-13.5,0-18.86-8.7-18.91-18.36,0-9.15,5.92-18.75,18.91-18.75a18.22,18.22,0,0,1,13,5.46l-4.95,4.9a11.58,11.58,0,0,0-8-2.93c-8,0-11.17,6.22-11.12,11.38s2.83,11,11.12,11a13.41,13.41,0,0,0,8.69-3.39Z" transform="translate(-173.31 -207.68)"/><path class="b" d="M249.29,294.18H231.15l-2.58,6.07h-8.5L236,264.86h8.59l15.87,35.39h-8.54Zm-9-21.33-6.11,14.35h12.18Z" transform="translate(-173.31 -207.68)"/><path class="b" d="M294.94,275.68,284,289.43h-1.41L272,275.58V300.3h-7.88V264.91h9l10.31,13.6,10.36-13.6h8.95V300.3h-7.89Z" transform="translate(-173.31 -207.68)"/><circle class="b" cx="501.12" cy="283.74" r="8.54" transform="translate(5.6 553.35) rotate(-85.5)"/><path class="b" d="M173.31,327.46v-13h2.88v13Z" transform="translate(-173.31 -207.68)"/><path class="b" d="M188.13,322.91l-.19-4.09v-4.36h2.92v13h-2.49l-6.46-8.32.11,4.27v4h-2.94v-13h2.49Z" transform="translate(-173.31 -207.68)"/><path class="b" d="M193.75,327.46v-13h9.47v2.65h-6.57v3.08h6.16v2.59h-6.16v4.66Z" transform="translate(-173.31 -207.68)"/><path class="b" d="M211.65,327.77c-4.16,0-7-2.58-7-6.81s2.86-6.82,7-6.82,7,2.58,7,6.82S215.81,327.77,211.65,327.77Zm0-11a4.08,4.08,0,0,0-4.18,4.22,4.18,4.18,0,1,0,4.18-4.22Z" transform="translate(-173.31 -207.68)"/><path class="b" d="M232.35,327.46h-3.22l-3.32-4.27h-2.1v4.27h-2.9v-13H227c3.14,0,4.81,2.1,4.81,4.38,0,1.69-.52,3.19-3,4.09l3.57,4.3ZM223.71,317v3.78H227a1.8,1.8,0,0,0,1.91-1.81,1.91,1.91,0,0,0-2-2Z" transform="translate(-173.31 -207.68)"/><path class="b" d="M245.58,318.43l-4,5.05h-.52l-3.88-5.08v9.08h-2.9v-13h3.33l3.79,5,3.8-5h3.29v13h-2.9Z" transform="translate(-173.31 -207.68)"/><path class="b" d="M260.58,325.23h-6.67l-.94,2.23h-3.13l5.84-13h3.15l5.83,13h-3.13Zm-3.33-7.84L255,322.67h4.47Z" transform="translate(-173.31 -207.68)"/><path class="b" d="M269.79,330.28c.41.5,1.93,1,2.13.11s-1-1.13-1.63-.63l-.6-.44.6-1.64c-3.85-.59-5.41-3.47-5.43-6.63a6.61,6.61,0,0,1,6.95-6.89,6.68,6.68,0,0,1,4.77,2l-1.82,1.8a4.25,4.25,0,0,0-2.95-1.08,3.94,3.94,0,0,0-4.09,4.18,3.81,3.81,0,0,0,4.09,4.05,4.94,4.94,0,0,0,3.2-1.25l1.8,2a6.82,6.82,0,0,1-4.65,1.91l-.22.65a1.85,1.85,0,0,1,2,2.23c-.34,2.51-4.12,2.3-5.26.56Z" transform="translate(-173.31 -207.68)"/><path class="b" d="M287.76,325.23h-6.67l-.95,2.23H277l5.83-13H286l5.83,13H288.7Zm-6.85-12.7c.55-1.19,1.35-2,2.69-1.68.91.23,1.84,1.19,2.28,0l1.66.82c-.69,1.59-1.53,2-2.59,1.67s-1.91-1.19-2.47.13Zm3.52,4.86-2.24,5.28h4.47Z" transform="translate(-173.31 -207.68)"/><path class="b" d="M299,327.77c-4.16,0-7-2.58-7-6.81s2.86-6.82,7-6.82,7,2.58,7,6.82S303.18,327.77,299,327.77Zm0-11a4.08,4.08,0,0,0-4.18,4.22,4.18,4.18,0,1,0,4.18-4.22Z" transform="translate(-173.31 -207.68)"/><path class="b" d="M323.79,325.88a6.87,6.87,0,0,1-5,1.91c-5,0-6.92-3.19-6.94-6.74a6.59,6.59,0,0,1,6.94-6.89,6.7,6.7,0,0,1,4.78,2l-1.82,1.8a4.27,4.27,0,0,0-3-1.08,3.92,3.92,0,0,0-4.08,4.18,3.8,3.8,0,0,0,4.08,4.05,4.94,4.94,0,0,0,3.2-1.25Z" transform="translate(-173.31 -207.68)"/><path class="b" d="M325.51,327.46v-13h2.88v13Z" transform="translate(-173.31 -207.68)"/><path class="b" d="M341.18,327.46h-9.9v-13h9.64v2.65h-6.79v2.51h6.4v2.55h-6.4v2.61h7.05Z" transform="translate(-173.31 -207.68)"/><path class="b" d="M352.51,322.91l-.19-4.09v-4.36h2.91v13h-2.48l-6.47-8.32.12,4.27v4h-2.94v-13H346Z" transform="translate(-173.31 -207.68)"/><path class="b" d="M361,317h-4v-2.58h10.79V317h-3.95v10.42H361Z" transform="translate(-173.31 -207.68)"/><path class="b" d="M369.54,327.46v-13h2.88v13Zm4.59-16.81H371l-1.37,2.6v.13H372l2.15-2.62Z" transform="translate(-173.31 -207.68)"/><path class="b" d="M375.32,327.46v-13h9.47v2.65h-6.58v3.08h6.17v2.59h-6.17v4.66Z" transform="translate(-173.31 -207.68)"/><path class="b" d="M386.94,327.46v-13h2.88v13Z" transform="translate(-173.31 -207.68)"/><path class="b" d="M403.91,325.88a6.87,6.87,0,0,1-5,1.91c-5,0-6.92-3.19-6.94-6.74a6.59,6.59,0,0,1,6.94-6.89,6.7,6.7,0,0,1,4.78,2l-1.82,1.8a4.27,4.27,0,0,0-3-1.08,3.92,3.92,0,0,0-4.08,4.18,3.8,3.8,0,0,0,4.08,4.05,4.94,4.94,0,0,0,3.2-1.25Z" transform="translate(-173.31 -207.68)"/><path class="b" d="M414.84,325.23h-6.67l-.94,2.23h-3.12l5.83-13h3.16l5.83,13h-3.14Zm-3.32-7.84-2.25,5.28h4.48Z" transform="translate(-173.31 -207.68)"/><path class="b" d="M427,323.78v3.68h-2.9v-13h6.13c3.32,0,5,2.15,5,4.66s-1.67,4.62-5,4.66Zm0-2.66h3.23a1.9,1.9,0,0,0,2.08-1.95,1.92,1.92,0,0,0-2.08-2H427Z" transform="translate(-173.31 -207.68)"/><path class="b" d="M445.3,325.23h-6.66l-.95,2.23h-3.12l5.83-13h3.16l5.83,13h-3.14ZM442,317.39l-2.25,5.28h4.48Z" transform="translate(-173.31 -207.68)"/><path class="b" d="M462.29,327.46h-3.21l-3.33-4.27h-2.09v4.27h-2.9v-13h6.16c3.14,0,4.81,2.1,4.81,4.38,0,1.69-.52,3.19-3,4.09l3.56,4.3ZM453.66,317v3.78H457a1.8,1.8,0,0,0,1.91-1.81,1.91,1.91,0,0,0-1.95-2Z" transform="translate(-173.31 -207.68)"/><path class="b" d="M473.43,325.23h-6.67l-.95,2.23h-3.12l5.83-13h3.16l5.83,13h-3.14Zm-3.33-7.84-2.24,5.28h4.47Z" transform="translate(-173.31 -207.68)"/><path class="b" d="M491.31,325.23h-6.67l-.95,2.23h-3.12l5.83-13h3.16l5.83,13h-3.14ZM488,317.39l-2.25,5.28h4.48Z" transform="translate(-173.31 -207.68)"/><path class="b" d="M499.66,323.78v3.68h-2.9v-13h6.13c3.32,0,5,2.15,5,4.66s-1.68,4.62-5,4.66Zm0-2.66h3.23a1.9,1.9,0,0,0,2.08-1.95,1.92,1.92,0,0,0-2.08-2h-3.23Z" transform="translate(-173.31 -207.68)"/><path class="b" d="M516,327.77c-4.16,0-7-2.58-7-6.81s2.86-6.82,7-6.82,7,2.58,7,6.82S520.17,327.77,516,327.77Zm0-11a4.08,4.08,0,0,0-4.18,4.22,4.18,4.18,0,1,0,4.18-4.22Z" transform="translate(-173.31 -207.68)"/><path class="b" d="M525.18,327.46v-13h2.88v13Z" transform="translate(-173.31 -207.68)"/><path class="b" d="M537.23,327.77c-4.16,0-7-2.58-7-6.81s2.86-6.82,7-6.82,7,2.58,7,6.82S541.39,327.77,537.23,327.77Zm0-11a4.08,4.08,0,0,0-4.18,4.22,4.18,4.18,0,1,0,4.18-4.22Z" transform="translate(-173.31 -207.68)"/><path class="b" d="M559.41,325.23h-6.66l-1,2.23h-3.12l5.83-13h3.16l5.83,13h-3.14Zm-3.32-7.84-2.25,5.28h4.48Z" transform="translate(-173.31 -207.68)"/><path class="b" d="M570.68,327.77c-4.16,0-7-2.58-7-6.81s2.86-6.82,7-6.82,7,2.58,7,6.82S574.84,327.77,570.68,327.77Zm0-11A4.08,4.08,0,0,0,566.5,321a4.18,4.18,0,1,0,4.18-4.22Z" transform="translate(-173.31 -207.68)"/><path class="b" d="M587.54,317.6a4.36,4.36,0,0,0-3-1.1c-1.28,0-2.32.54-2.32,1.43,0,1.19,1.13,1.41,2.8,1.56,2.56.22,5,1.21,5,4.22s-2.68,4.16-5.48,4.17c-2.25,0-4.59-.85-5.68-2.67l1.72-1.8a5.18,5.18,0,0,0,4,1.84c1.54,0,2.6-.62,2.6-1.54,0-1.1-.86-1.6-2.62-1.75-2.75-.26-5.2-.95-5.17-4,0-2.58,2.47-4,5.15-4a5.73,5.73,0,0,1,4.85,2Z" transform="translate(-173.31 -207.68)"/><path class="b" d="M607.7,318.43l-4,5.05h-.51l-3.89-5.08v9.08h-2.89v-13h3.32l3.79,5,3.81-5h3.28v13H607.7Z" transform="translate(-173.31 -207.68)"/><path class="b" d="M623.38,327.46h-9.9v-13h9.64v2.65h-6.79v2.51h6.4v2.55h-6.4v2.61h7Zm-1.93-17h-3.12L617,313.06v.14h2.34l2.15-2.62Z" transform="translate(-173.31 -207.68)"/><path class="b" d="M631,314.46c4.48,0,6.47,3,6.47,6.41s-1.92,6.59-6.47,6.59h-5.33v-13Zm-2.47,10.32H631c2.82,0,3.61-2.08,3.61-3.95s-.9-3.75-3.61-3.75h-2.47Z" transform="translate(-173.31 -207.68)"/><path class="b" d="M639.64,327.46v-13h2.88v13Z" transform="translate(-173.31 -207.68)"/><path class="b" d="M656.61,325.88a6.87,6.87,0,0,1-5,1.91c-5,0-6.92-3.19-6.94-6.74a6.59,6.59,0,0,1,6.94-6.89,6.7,6.7,0,0,1,4.78,2l-1.82,1.8a4.25,4.25,0,0,0-3-1.08,3.92,3.92,0,0,0-4.08,4.18,3.8,3.8,0,0,0,4.08,4.05,4.92,4.92,0,0,0,3.2-1.25Z" transform="translate(-173.31 -207.68)"/><path class="b" d="M664.26,327.77c-4.16,0-7-2.58-7-6.81s2.86-6.82,7-6.82,7,2.58,7,6.82S668.42,327.77,664.26,327.77Zm0-11a4.08,4.08,0,0,0-4.18,4.22,4.18,4.18,0,1,0,4.18-4.22Z" transform="translate(-173.31 -207.68)"/><path class="b" d="M681.11,317.6a4.32,4.32,0,0,0-3-1.1c-1.29,0-2.33.54-2.33,1.43,0,1.19,1.14,1.41,2.81,1.56,2.56.22,5,1.21,5,4.22s-2.67,4.16-5.47,4.17c-2.25,0-4.59-.85-5.69-2.67l1.73-1.8a5.17,5.17,0,0,0,4,1.84c1.55,0,2.6-.62,2.6-1.54,0-1.1-.85-1.6-2.61-1.75-2.75-.26-5.2-.95-5.17-4,0-2.58,2.47-4,5.15-4a5.71,5.71,0,0,1,4.84,2Z" transform="translate(-173.31 -207.68)"/><path class="c" d="M377.67,214.76a3.1,3.1,0,0,0-3.34-2.87c-1.71,0-3.06.69-3.24,2-.54,3.52,5.83,2,5.93,9.24h-4.84c0-4.84-7.31-3.84-6.09-10.27.72-3.47,3.93-5.15,8.24-5.15,4.78,0,8.18,2.52,8.21,7.08Zm-.25,12.71c0,3.78-5.74,3.78-5.74,0S377.42,223.66,377.42,227.47Z" transform="translate(-173.31 -207.68)"/><path class="c" d="M345.15,226.85a3.1,3.1,0,0,0-4.38.46c-1.18,1.25-1.6,2.69-.8,3.71,2.2,2.8,5.44-2.9,10.79,2l-3.31,3.52c-3.53-3.32-7.81,2.68-11.65-2.61-2-2.9-1.06-6.4,1.9-9.53,3.28-3.48,7.45-4.22,10.79-1.12Zm9.07,8.89c2.75,2.59-1.19,6.77-3.94,4.18S351.45,233.13,354.22,235.74Z" transform="translate(-173.31 -207.68)"/><path class="c" d="M400.22,242.27c-2.59,2.75-6.77-1.19-4.18-3.94S402.83,239.5,400.22,242.27Zm8.9-9.07a3.12,3.12,0,0,0-.46-4.39c-1.25-1.17-2.7-1.59-3.71-.79-2.81,2.2,2.9,5.43-2,10.79l-3.53-3.32c3.32-3.52-2.68-7.8,2.62-11.65,2.9-2,6.39-1.05,9.53,1.91,3.47,3.27,4.22,7.45,1.11,10.79Z" transform="translate(-173.31 -207.68)"/><path class="c" d="M370.74,302.29a3.11,3.11,0,0,0,3.34,2.88c1.72,0,3.06-.69,3.25-2,.53-3.53-5.84-2-5.93-9.24h4.84c0,4.84,7.3,3.84,6.08,10.27-.71,3.46-3.93,5.15-8.24,5.15-4.77,0-8.18-2.53-8.21-7.09Zm.25-12.7c0-3.78,5.75-3.78,5.75,0S371,293.4,371,289.59Z" transform="translate(-173.31 -207.68)"/><path class="c" d="M394.61,282c-2.75-2.59,1.19-6.77,3.94-4.17S397.38,284.6,394.61,282Zm9.08,8.9a3.1,3.1,0,0,0,4.38-.46c1.17-1.25,1.59-2.7.79-3.71-2.2-2.81-5.43,2.9-10.79-2l3.32-3.52c3.52,3.31,7.8-2.69,11.65,2.61,2,2.9,1,6.39-1.91,9.53-3.27,3.47-7.45,4.22-10.79,1.11Z" transform="translate(-173.31 -207.68)"/><path class="c" d="M339.71,285.86a3.13,3.13,0,0,0,.47,4.39c1.25,1.17,2.69,1.59,3.71.79,2.8-2.2-2.9-5.43,2-10.79l3.52,3.32c-3.32,3.52,2.68,7.8-2.61,11.65-2.9,2-6.4,1-9.53-1.91-3.48-3.27-4.22-7.45-1.12-10.78Zm8.9-9.07c2.59-2.75,6.77,1.19,4.18,3.94S346,279.56,348.61,276.79Z" transform="translate(-173.31 -207.68)"/><path class="c" d="M343.85,258.78a30.36,30.36,0,1,0,30.36-30.36A30.36,30.36,0,0,0,343.85,258.78Z" transform="translate(-173.31 -207.68)"/><path class="d" d="M421.83,269.94h0a19.49,19.49,0,0,1,2.24.19c9.55,1.43,15.88,14.45,7.28,23.61l-16.54,16.54h7.07l13-13a19,19,0,0,0,5.62-13.56,18.68,18.68,0,0,0-18.16-18.91l-.51,0v-.18H405.24a30.92,30.92,0,0,1-.87,4.94c0,.13,0,.26,0,.39Z" transform="translate(-173.31 -207.68)"/><polygon class="d" points="330.57 102.61 330.52 99.91 330.48 99.91 330.52 93.11 325.2 93.11 325.26 102.61 330.57 102.61"/><path class="d" d="M496.2,330.28c-8.07,26.87-34.9,46.63-66.81,46.63-21,0-39.51-12.71-52.17-27a19,19,0,0,0,10.31-5.31l14.35-14.35h-7.07L384,341.1a14.12,14.12,0,0,1-9.45,4.12v4.06h0v-4.06A14.15,14.15,0,0,1,365,341.1l-10.81-10.82h-7.07l14.35,14.35A18.86,18.86,0,0,0,371,349.8c13.41,16.68,34.16,32.31,58,32.31,35.42,0,66.21-21.6,73.41-51.83Z" transform="translate(-173.31 -207.68)"/><path class="d" d="M327.16,310.28h7.07l-16.54-16.54c-8.61-9.16-2.28-22.18,7.28-23.61a22.76,22.76,0,0,1,2.7-.21v0H344c0-.13,0-.26.05-.39a30.93,30.93,0,0,1-.88-4.94h-15.5v.17l-1,0a18.68,18.68,0,0,0-18.16,18.91,19.05,19.05,0,0,0,5.61,13.56Z" transform="translate(-173.31 -207.68)"/></svg>